_AmstelvarAlpha-GradeMax.ufo
<glyph name="exclam" format="1">
  <advance width="604"/>
  <unicode hex="0021"/>
  <outline>
    <contour>
      <point x="171" y="180" type="qcurve" smooth="yes"/>
      <point x="171" y="267"/>
      <point x="292" y="375"/>
      <point x="390" y="375" type="qcurve" smooth="yes"/>
      <point x="487" y="375"/>
      <point x="609" y="264"/>
      <point x="609" y="180" type="qcurve" smooth="yes"/>
      <point x="609" y="94"/>
      <point x="488" y="-22"/>
      <point x="390" y="-22" type="qcurve" smooth="yes"/>
      <point x="293" y="-22"/>
      <point x="171" y="97"/>
    </contour>
    <contour>
      <point x="158" y="1512" type="line"/>
      <point x="623" y="1512" type="line"/>
      <point x="611" y="1108" type="line"/>
      <point x="450" y="800" type="line"/>
      <point x="437" y="553" type="line"/>
      <point x="343" y="553" type="line"/>
      <point x="330" y="800" type="line"/>
      <point x="170" y="1108" type="line"/>
    </contour>
  </outline>
</glyph>
<glyph name="numbersign" format="1">
  <advance width="1324"/>
  <unicode hex="0023"/>
  <outline>
    <contour>
      <point x="20" y="326" type="line"/>
      <point x="20" y="656" type="line"/>
      <point x="1218" y="656" type="line"/>
      <point x="1218" y="326" type="line"/>
    </contour>
    <contour>
      <point x="110" y="828" type="line"/>
      <point x="110" y="1158" type="line"/>
      <point x="1308" y="1158" type="line"/>
      <point x="1308" y="828" type="line"/>
    </contour>
    <contour>
      <point x="118" y="-57" type="line"/>
      <point x="645" y="1545" type="line"/>
      <point x="755" y="1518" type="line"/>
      <point x="228" y="-84" type="line"/>
    </contour>
    <contour>
      <point x="580" y="-57" type="line"/>
      <point x="1107" y="1545" type="line"/>
      <point x="1217" y="1518" type="line"/>
      <point x="690" y="-84" type="line"/>
    </contour>
  </outline>
</glyph>
<glyph name="dollar" format="1">
  <advance width="1107"/>
  <unicode hex="0024"/>
  <outline>
    <contour>
      <point x="56" y="271" type="qcurve"/>
      <point x="162" y="342" type="line"/>
      <point x="216" y="238"/>
      <point x="401" y="122"/>
      <point x="529" y="122" type="qcurve" smooth="yes"/>
      <point x="649" y="122"/>
      <point x="772" y="225"/>
      <point x="772" y="312" type="qcurve" smooth="yes"/>
      <point x="772" y="424"/>
      <point x="630" y="572"/>
      <point x="469" y="637" type="qcurve" smooth="yes"/>
      <point x="273" y="717"/>
      <point x="87" y="941"/>
      <point x="87" y="1113" type="qcurve" smooth="yes"/>
      <point x="87" y="1289"/>
      <point x="330" y="1500"/>
      <point x="538" y="1500" type="qcurve" smooth="yes"/>
      <point x="687" y="1500"/>
      <point x="907" y="1420"/>
      <point x="994" y="1345" type="qcurve"/>
      <point x="919" y="1241" type="line"/>
      <point x="839" y="1302"/>
      <point x="669" y="1373"/>
      <point x="569" y="1373" type="qcurve" smooth="yes"/>
      <point x="468" y="1373"/>
      <point x="369" y="1299"/>
      <point x="369" y="1217" type="qcurve" smooth="yes"/>
      <point x="369" y="1141"/>
      <point x="478" y="1022"/>
      <point x="652" y="958" type="qcurve" smooth="yes"/>
      <point x="856" y="875"/>
      <point x="1095" y="647"/>
      <point x="1095" y="445" type="qcurve" smooth="yes"/>
      <point x="1095" y="236"/>
      <point x="820" y="1"/>
      <point x="579" y="1" type="qcurve" smooth="yes"/>
      <point x="377" y="1"/>
      <point x="127" y="148"/>
    </contour>
    <contour>
      <point x="468" y="-181" type="line"/>
      <point x="468" y="52" type="line"/>
      <point x="485" y="52" type="line"/>
      <point x="485" y="328" type="line"/>
      <point x="667" y="319" type="line"/>
      <point x="667" y="52" type="line"/>
      <point x="688" y="52" type="line"/>
      <point x="688" y="-152" type="line"/>
    </contour>
    <contour>
      <point x="458" y="1605" type="line"/>
      <point x="679" y="1630" type="line"/>
      <point x="679" y="1432" type="line"/>
      <point x="660" y="1432" type="line"/>
      <point x="660" y="1195" type="line"/>
      <point x="478" y="1211" type="line"/>
      <point x="478" y="1432" type="line"/>
      <point x="458" y="1432" type="line"/>
    </contour>
  </outline>
</glyph>
<glyph name="percent" format="1">
  <advance width="2038"/>
  <unicode hex="0025"/>
  <outline>
    <contour>
      <point x="74" y="1068" type="qcurve" smooth="yes"/>
      <point x="74" y="1281"/>
      <point x="322" y="1521"/>
      <point x="521" y="1521" type="qcurve" smooth="yes"/>
      <point x="721" y="1521"/>
      <point x="972" y="1302"/>
      <point x="972" y="1070" type="qcurve" smooth="yes"/>
      <point x="972" y="851"/>
      <point x="726" y="602"/>
      <point x="527" y="602" type="qcurve" smooth="yes"/>
      <point x="327" y="602"/>
      <point x="74" y="828"/>
    </contour>
    <contour>
      <point x="419" y="1071" type="qcurve" smooth="yes"/>
      <point x="419" y="843"/>
      <point x="471" y="718"/>
      <point x="521" y="718" type="qcurve" smooth="yes"/>
      <point x="574" y="718"/>
      <point x="624" y="829"/>
      <point x="624" y="1066" type="qcurve" smooth="yes"/>
      <point x="624" y="1277"/>
      <point x="572" y="1401"/>
      <point x="522" y="1401" type="qcurve" smooth="yes"/>
      <point x="468" y="1401"/>
      <point x="418" y="1302"/>
    </contour>
    <contour>
      <point x="654" y="19" type="line"/>
      <point x="1326" y="1521" type="line"/>
      <point x="1455" y="1468" type="line"/>
      <point x="782" y="-35" type="line"/>
    </contour>
    <contour>
      <point x="1153" y="431" type="qcurve" smooth="yes"/>
      <point x="1153" y="646"/>
      <point x="1401" y="891"/>
      <point x="1600" y="891" type="qcurve" smooth="yes"/>
      <point x="1800" y="891"/>
      <point x="2050" y="666"/>
      <point x="2050" y="433" type="qcurve" smooth="yes"/>
      <point x="2050" y="219"/>
      <point x="1805" y="-26"/>
      <point x="1605" y="-26" type="qcurve" smooth="yes"/>
      <point x="1405" y="-26"/>
      <point x="1153" y="197"/>
    </contour>
    <contour>
      <point x="1497" y="441" type="qcurve" smooth="yes"/>
      <point x="1497" y="215"/>
      <point x="1550" y="90"/>
      <point x="1601" y="90" type="qcurve" smooth="yes"/>
      <point x="1654" y="90"/>
      <point x="1703" y="193"/>
      <point x="1703" y="437" type="qcurve" smooth="yes"/>
      <point x="1703" y="647"/>
      <point x="1651" y="771"/>
      <point x="1600" y="771" type="qcurve" smooth="yes"/>
      <point x="1545" y="771"/>
      <point x="1497" y="672"/>
    </contour>
  </outline>
</glyph>
<glyph name="ampersand" format="1">
  <advance width="1202"/>
  <unicode hex="0026"/>
  <outline>
    <contour>
      <point x="52" y="389" type="qcurve" smooth="yes"/>
      <point x="52" y="567"/>
      <point x="334" y="768"/>
      <point x="520" y="790" type="qcurve"/>
      <point x="337" y="803"/>
      <point x="143" y="982"/>
      <point x="143" y="1152" type="qcurve" smooth="yes"/>
      <point x="143" y="1327"/>
      <point x="402" y="1513"/>
      <point x="623" y="1513" type="qcurve" smooth="yes"/>
      <point x="774" y="1513"/>
      <point x="973" y="1447"/>
      <point x="1034" y="1388" type="qcurve"/>
      <point x="982" y="1269" type="line"/>
      <point x="947" y="1333"/>
      <point x="848" y="1386"/>
      <point x="774" y="1386" type="qcurve" smooth="yes"/>
      <point x="699" y="1386"/>
      <point x="617" y="1284"/>
      <point x="617" y="1152" type="qcurve" smooth="yes"/>
      <point x="617" y="1020"/>
      <point x="724" y="854"/>
      <point x="841" y="854" type="qcurve" smooth="yes"/>
      <point x="892" y="854"/>
      <point x="903" y="847"/>
      <point x="905" y="787" type="qcurve"/>
      <point x="904" y="740"/>
      <point x="879" y="726"/>
      <point x="817" y="726" type="qcurve" smooth="yes"/>
      <point x="714" y="726"/>
      <point x="562" y="559"/>
      <point x="562" y="400" type="qcurve" smooth="yes"/>
      <point x="562" y="245"/>
      <point x="673" y="102"/>
      <point x="780" y="102" type="qcurve" smooth="yes"/>
      <point x="886" y="102"/>
      <point x="1011" y="185"/>
      <point x="1036" y="246" type="qcurve"/>
      <point x="1118" y="189" type="line"/>
      <point x="1044" y="89"/>
      <point x="813" y="-19"/>
      <point x="648" y="-19" type="qcurve" smooth="yes"/>
      <point x="377" y="-19"/>
      <point x="52" y="185"/>
    </contour>
    <contour>
      <point x="948" y="1334" type="line"/>
      <point x="1006" y="1487" type="line"/>
      <point x="1092" y="1487" type="line"/>
      <point x="1092" y="1101" type="line"/>
      <point x="992" y="1101" type="line"/>
    </contour>
    <contour>
      <point x="1018" y="158" type="line"/>
      <point x="1081" y="475" type="line"/>
      <point x="1183" y="475" type="line"/>
      <point x="1174" y="0" type="line"/>
      <point x="1084" y="0" type="line"/>
    </contour>
  </outline>
</glyph>
<glyph name="parenright" format="1">
  <advance width="598"/>
  <unicode hex="0029"/>
  <outline>
    <contour>
      <point x="636" y="653" type="qcurve" smooth="yes"/>
      <point x="636" y="371"/>
      <point x="344" y="-63"/>
      <point x="128" y="-218" type="qcurve"/>
      <point x="21" y="-138" type="line"/>
      <point x="81" y="19"/>
      <point x="142" y="412"/>
      <point x="142" y="654" type="qcurve" smooth="yes"/>
      <point x="142" y="894"/>
      <point x="77" y="1306"/>
      <point x="20" y="1442" type="qcurve"/>
      <point x="128" y="1525" type="line"/>
      <point x="341" y="1393"/>
      <point x="636" y="929"/>
    </contour>
  </outline>
</glyph>
<glyph name="comma" format="1">
  <advance width="584"/>
  <unicode hex="002C"/>
  <outline>
    <contour>
      <point x="143" y="-252" type="line"/>
      <point x="209" y="-215"/>
      <point x="354" y="-87"/>
      <point x="394" y="9" type="qcurve"/>
      <point x="257" y="9"/>
      <point x="140" y="128"/>
      <point x="140" y="214" type="qcurve" smooth="yes"/>
      <point x="140" y="299"/>
      <point x="269" y="425"/>
      <point x="371" y="425" type="qcurve" smooth="yes"/>
      <point x="470" y="425"/>
      <point x="602" y="309"/>
      <point x="602" y="191" type="qcurve" smooth="yes"/>
      <point x="602" y="38"/>
      <point x="357" y="-264"/>
      <point x="203" y="-326" type="qcurve"/>
    </contour>
  </outline>
</glyph>
<glyph name="hyphen" format="1">
  <advance width="739"/>
  <unicode hex="002D"/>
  <outline>
    <contour>
      <point x="80" y="469" type="line"/>
      <point x="80" y="795" type="line"/>
      <point x="407" y="791" type="line"/>
      <point x="733" y="795" type="line"/>
      <point x="733" y="469" type="line"/>
      <point x="407" y="473" type="line"/>
    </contour>
  </outline>
</glyph>
<glyph name="period" format="1">
  <advance width="584"/>
  <unicode hex="002E"/>
  <outline>
    <contour>
      <point x="148" y="203" type="qcurve" smooth="yes"/>
      <point x="148" y="295"/>
      <point x="282" y="430"/>
      <point x="387" y="430" type="qcurve" smooth="yes"/>
      <point x="490" y="430"/>
      <point x="626" y="295"/>
      <point x="626" y="203" type="qcurve" smooth="yes"/>
      <point x="626" y="114"/>
      <point x="490" y="-22"/>
      <point x="387" y="-22" type="qcurve" smooth="yes"/>
      <point x="282" y="-22"/>
      <point x="148" y="114"/>
    </contour>
  </outline>
</glyph>
<glyph name="slash" format="1">
  <advance width="656"/>
  <unicode hex="002F"/>
  <outline>
    <contour>
      <point x="-40" y="-98" type="line"/>
      <point x="307" y="1547" type="line"/>
      <point x="629" y="1457" type="line"/>
      <point x="282" y="-184" type="line"/>
    </contour>
  </outline>
</glyph>
<glyph name="one" format="1">
  <advance width="840"/>
  <unicode hex="0031"/>
  <outline>
    <contour>
      <point x="84" y="0" type="line"/>
      <point x="84" y="94" type="line"/>
      <point x="226" y="129" type="line"/>
      <point x="226" y="754" type="line"/>
      <point x="224" y="1352" type="line"/>
      <point x="82" y="1386" type="line"/>
      <point x="82" y="1490" type="line"/>
      <point x="691" y="1513" type="line"/>
      <point x="723" y="1478" type="line"/>
      <point x="717" y="754" type="line"/>
      <point x="717" y="129" type="line"/>
      <point x="858" y="94" type="line"/>
      <point x="858" y="0" type="line"/>
    </contour>
  </outline>
</glyph>
<glyph name="four" format="1">
  <advance width="1170"/>
  <unicode hex="0034"/>
  <outline>
    <contour>
      <point x="26" y="411" type="line"/>
      <point x="6" y="533" type="line"/>
      <point x="608" y="1506" type="line"/>
      <point x="974" y="1506" type="line"/>
      <point x="1006" y="1473" type="line"/>
      <point x="1001" y="563" type="line"/>
      <point x="1173" y="563" type="line"/>
      <point x="1173" y="434" type="line"/>
      <point x="1000" y="426" type="line"/>
      <point x="1000" y="129" type="line"/>
      <point x="1109" y="94" type="line"/>
      <point x="1109" y="0" type="line"/>
      <point x="397" y="0" type="line"/>
      <point x="397" y="94" type="line"/>
      <point x="510" y="129" type="line"/>
      <point x="510" y="418" type="line"/>
    </contour>
    <contour>
      <point x="195" y="563" type="line"/>
      <point x="501" y="563" type="line"/>
      <point x="505" y="1085" type="line"/>
      <point x="193" y="580" type="line"/>
    </contour>
  </outline>
</glyph>
<glyph name="five" format="1">
  <advance width="974"/>
  <unicode hex="0035"/>
  <outline>
    <contour>
      <point x="2" y="70" type="qcurve"/>
      <point x="2" y="188" type="line"/>
      <point x="51" y="150"/>
      <point x="174" y="114"/>
      <point x="252" y="114" type="qcurve" smooth="yes"/>
      <point x="338" y="114"/>
      <point x="441" y="270"/>
      <point x="441" y="453" type="qcurve" smooth="yes"/>
      <point x="441" y="630"/>
      <point x="302" y="774"/>
      <point x="172" y="774" type="qcurve" smooth="yes"/>
      <point x="80" y="774" type="line"/>
      <point x="139" y="878" type="line"/>
      <point x="472" y="902" type="line"/>
      <point x="732" y="902"/>
      <point x="955" y="684"/>
      <point x="955" y="463" type="qcurve" smooth="yes"/>
      <point x="955" y="234"/>
      <point x="714" y="-22"/>
      <point x="479" y="-22" type="qcurve" smooth="yes"/>
      <point x="299" y="-22"/>
      <point x="67" y="27"/>
    </contour>
    <contour>
      <point x="80" y="774" type="qcurve"/>
      <point x="109" y="1467" type="line"/>
      <point x="136" y="1500" type="line"/>
      <point x="915" y="1500" type="line"/>
      <point x="899" y="1167" type="line"/>
      <point x="245" y="1167" type="line"/>
      <point x="237" y="1156" type="line"/>
      <point x="218" y="950"/>
      <point x="174" y="774"/>
    </contour>
  </outline>
</glyph>
<glyph name="eight" format="1">
  <advance width="1056"/>
  <unicode hex="0038"/>
  <outline>
    <contour>
      <point x="62" y="388" type="qcurve" smooth="yes"/>
      <point x="62" y="566"/>
      <point x="290" y="809"/>
      <point x="451" y="862" type="qcurve"/>
      <point x="584" y="768" type="line"/>
      <point x="548" y="720"/>
      <point x="511" y="533"/>
      <point x="511" y="335" type="qcurve" smooth="yes"/>
      <point x="511" y="184"/>
      <point x="528" y="101"/>
      <point x="559" y="101" type="qcurve" smooth="yes"/>
      <point x="590" y="101"/>
      <point x="615" y="181"/>
      <point x="615" y="329" type="qcurve" smooth="yes"/>
      <point x="615" y="451"/>
      <point x="566" y="584"/>
      <point x="437" y="666" type="qcurve" smooth="yes"/>
      <point x="278" y="765"/>
      <point x="161" y="967"/>
      <point x="161" y="1149" type="qcurve" smooth="yes"/>
      <point x="161" y="1325"/>
      <point x="384" y="1520"/>
      <point x="601" y="1520" type="qcurve" smooth="yes"/>
      <point x="815" y="1520"/>
      <point x="1015" y="1364"/>
      <point x="1015" y="1209" type="qcurve" smooth="yes"/>
      <point x="1015" y="1069"/>
      <point x="840" y="879"/>
      <point x="667" y="824" type="qcurve"/>
      <point x="544" y="868" type="line"/>
      <point x="591" y="925"/>
      <point x="639" y="1088"/>
      <point x="639" y="1235" type="qcurve" smooth="yes"/>
      <point x="639" y="1324"/>
      <point x="624" y="1391"/>
      <point x="595" y="1391" type="qcurve" smooth="yes"/>
      <point x="566" y="1391"/>
      <point x="549" y="1326"/>
      <point x="549" y="1240" type="qcurve" smooth="yes"/>
      <point x="549" y="1134"/>
      <point x="605" y="1006"/>
      <point x="761" y="923" type="qcurve" smooth="yes"/>
      <point x="914" y="846"/>
      <point x="1104" y="607"/>
      <point x="1104" y="413" type="qcurve" smooth="yes"/>
      <point x="1104" y="207"/>
      <point x="845" y="-20"/>
      <point x="571" y="-20" type="qcurve" smooth="yes"/>
      <point x="300" y="-20"/>
      <point x="62" y="205"/>
    </contour>
  </outline>
</glyph>
<glyph name="nine" format="1">
  <advance width="1176"/>
  <unicode hex="0039"/>
  <outline>
    <contour>
      <point x="60" y="1004" type="qcurve" smooth="yes"/>
      <point x="60" y="1257"/>
      <point x="315" y="1521"/>
      <point x="604" y="1521" type="qcurve" smooth="yes"/>
      <point x="893" y="1521"/>
      <point x="1203" y="1222"/>
      <point x="1203" y="833" type="qcurve" smooth="yes"/>
      <point x="1203" y="381"/>
      <point x="798" y="-30"/>
      <point x="246" y="-20" type="qcurve"/>
      <point x="246" y="103" type="line"/>
      <point x="497" y="112"/>
      <point x="705" y="384"/>
      <point x="704" y="831" type="qcurve" smooth="yes"/>
      <point x="704" y="1309"/>
      <point x="657" y="1399"/>
      <point x="612" y="1399" type="qcurve" smooth="yes"/>
      <point x="572" y="1399"/>
      <point x="527" y="1331"/>
      <point x="527" y="1035" type="qcurve" smooth="yes"/>
      <point x="527" y="752"/>
      <point x="570" y="667"/>
      <point x="619" y="667" type="qcurve" smooth="yes"/>
      <point x="638" y="667"/>
      <point x="671" y="674"/>
      <point x="680" y="677" type="qcurve"/>
      <point x="684" y="605" type="line"/>
      <point x="666" y="579"/>
      <point x="550" y="531"/>
      <point x="469" y="531" type="qcurve" smooth="yes"/>
      <point x="266" y="531"/>
      <point x="60" y="764"/>
    </contour>
  </outline>
</glyph>
<glyph name="colon" format="1">
  <advance width="664"/>
  <unicode hex="003A"/>
  <outline>
    <contour>
      <point x="188" y="170" type="qcurve" smooth="yes"/>
      <point x="188" y="242"/>
      <point x="333" y="312"/>
      <point x="433" y="312" type="qcurve" smooth="yes"/>
      <point x="539" y="312"/>
      <point x="678" y="242"/>
      <point x="678" y="170" type="qcurve"/>
      <point x="677" y="97"/>
      <point x="550" y="-22"/>
      <point x="433" y="-22" type="qcurve" smooth="yes"/>
      <point x="319" y="-22"/>
      <point x="188" y="97"/>
    </contour>
    <contour>
      <point x="189" y="843" type="qcurve" smooth="yes"/>
      <point x="189" y="913"/>
      <point x="319" y="1029"/>
      <point x="432" y="1029" type="qcurve" smooth="yes"/>
      <point x="543" y="1029"/>
      <point x="678" y="913"/>
      <point x="678" y="843" type="qcurve" smooth="yes"/>
      <point x="678" y="768"/>
      <point x="533" y="697"/>
      <point x="432" y="697" type="qcurve" smooth="yes"/>
      <point x="333" y="697"/>
      <point x="188" y="768"/>
    </contour>
  </outline>
</glyph>
<glyph name="semicolon" format="1">
  <advance width="656"/>
  <unicode hex="003B"/>
  <outline>
    <contour>
      <point x="182" y="-252" type="line"/>
      <point x="248" y="-215"/>
      <point x="387" y="-93"/>
      <point x="433" y="-10" type="qcurve"/>
      <point x="306" y="-8"/>
      <point x="183" y="96"/>
      <point x="183" y="173" type="qcurve" smooth="yes"/>
      <point x="183" y="240"/>
      <point x="317" y="309"/>
      <point x="422" y="309" type="qcurve" smooth="yes"/>
      <point x="527" y="309"/>
      <point x="661" y="245"/>
      <point x="661" y="164" type="qcurve" smooth="yes"/>
      <point x="661" y="32"/>
      <point x="397" y="-264"/>
      <point x="242" y="-326" type="qcurve"/>
    </contour>
    <contour>
      <point x="180" y="844" type="qcurve" smooth="yes"/>
      <point x="180" y="914"/>
      <point x="310" y="1029"/>
      <point x="424" y="1029" type="qcurve" smooth="yes"/>
      <point x="534" y="1029"/>
      <point x="668" y="914"/>
      <point x="668" y="844" type="qcurve" smooth="yes"/>
      <point x="668" y="769"/>
      <point x="524" y="698"/>
      <point x="424" y="698" type="qcurve" smooth="yes"/>
      <point x="324" y="698"/>
      <point x="180" y="769"/>
    </contour>
  </outline>
</glyph>
<glyph name="at" format="1">
  <advance width="1664"/>
  <unicode hex="0040"/>
  <outline>
    <contour>
      <point x="80" y="746" type="qcurve" smooth="yes"/>
      <point x="80" y="1066"/>
      <point x="510" y="1514"/>
      <point x="865" y="1514" type="qcurve" smooth="yes"/>
      <point x="1207" y="1514"/>
      <point x="1652" y="1134"/>
      <point x="1652" y="826" type="qcurve" smooth="yes"/>
      <point x="1652" y="593"/>
      <point x="1371" y="341"/>
      <point x="1183" y="341" type="qcurve" smooth="yes"/>
      <point x="1070" y="341"/>
      <point x="947" y="445"/>
      <point x="947" y="554" type="qcurve" smooth="yes"/>
      <point x="950" y="884" type="line" smooth="yes"/>
      <point x="950" y="993"/>
      <point x="859" y="1076"/>
      <point x="770" y="1076" type="qcurve" smooth="yes"/>
      <point x="706" y="1076"/>
      <point x="607" y="1041"/>
      <point x="568" y="1007" type="qcurve"/>
      <point x="522" y="1061" type="line"/>
      <point x="558" y="1115"/>
      <point x="720" y="1191"/>
      <point x="838" y="1191" type="qcurve" smooth="yes"/>
      <point x="1009" y="1191"/>
      <point x="1209" y="1049"/>
      <point x="1211" y="883" type="qcurve" smooth="yes"/>
      <point x="1214" y="486" type="line"/>
      <point x="1226" y="469"/>
      <point x="1255" y="458"/>
      <point x="1283" y="458" type="qcurve" smooth="yes"/>
      <point x="1367" y="458"/>
      <point x="1501" y="616"/>
      <point x="1501" y="787" type="qcurve" smooth="yes"/>
      <point x="1501" y="1042"/>
      <point x="1144" y="1376"/>
      <point x="870" y="1376" type="qcurve" smooth="yes"/>
      <point x="586" y="1376"/>
      <point x="233" y="1040"/>
      <point x="235" y="753" type="qcurve" smooth="yes"/>
      <point x="237" y="452"/>
      <point x="584" y="94"/>
      <point x="833" y="94" type="qcurve" smooth="yes"/>
      <point x="944" y="94"/>
      <point x="1118" y="138"/>
      <point x="1178" y="173" type="qcurve"/>
      <point x="1217" y="113" type="line"/>
      <point x="1151" y="50"/>
      <point x="948" y="-24"/>
      <point x="818" y="-24" type="qcurve" smooth="yes"/>
      <point x="513" y="-24"/>
      <point x="80" y="401"/>
    </contour>
    <contour>
      <point x="441" y="580" type="qcurve" smooth="yes"/>
      <point x="441" y="703"/>
      <point x="697" y="860"/>
      <point x="987" y="915" type="qcurve"/>
      <point x="995" y="837" type="line"/>
      <point x="859" y="802"/>
      <point x="720" y="704"/>
      <point x="720" y="591" type="qcurve" smooth="yes"/>
      <point x="720" y="502"/>
      <point x="786" y="442"/>
      <point x="839" y="442" type="qcurve" smooth="yes"/>
      <point x="897" y="442"/>
      <point x="974" y="522"/>
      <point x="980" y="588" type="qcurve"/>
      <point x="1037" y="588" type="line"/>
      <point x="1038" y="485"/>
      <point x="866" y="333"/>
      <point x="727" y="333" type="qcurve" smooth="yes"/>
      <point x="593" y="333"/>
      <point x="441" y="465"/>
    </contour>
  </outline>
</glyph>
<glyph name="B" format="1">
  <advance width="1269"/>
  <unicode hex="0042"/>
  <outline>
    <contour>
      <point x="82" y="0" type="line"/>
      <point x="82" y="100" type="line"/>
      <point x="144" y="136" type="line"/>
      <point x="146" y="784" type="line"/>
      <point x="144" y="1352" type="line"/>
      <point x="82" y="1386" type="line"/>
      <point x="82" y="1500" type="line"/>
      <point x="869" y="1500" type="line" smooth="yes"/>
      <point x="1076" y="1500"/>
      <point x="1255" y="1309"/>
      <point x="1255" y="1166" type="qcurve" smooth="yes"/>
      <point x="1255" y="1031"/>
      <point x="1143" y="854"/>
      <point x="1039" y="833" type="qcurve"/>
      <point x="1039" y="826" type="line"/>
      <point x="1159" y="799"/>
      <point x="1318" y="604"/>
      <point x="1318" y="433" type="qcurve" smooth="yes"/>
      <point x="1318" y="246"/>
      <point x="1116" y="0"/>
      <point x="901" y="0" type="qcurve" smooth="yes"/>
    </contour>
    <contour>
      <point x="640" y="135" type="line"/>
      <point x="647" y="115" type="line"/>
      <point x="683" y="115" type="line" smooth="yes"/>
      <point x="758" y="115"/>
      <point x="818" y="262"/>
      <point x="818" y="440" type="qcurve" smooth="yes"/>
      <point x="818" y="613"/>
      <point x="761" y="738"/>
      <point x="706" y="738" type="qcurve" smooth="yes"/>
      <point x="644" y="738" type="line"/>
      <point x="640" y="733" type="line"/>
    </contour>
    <contour>
      <point x="639" y="869" type="line"/>
      <point x="639" y="852" type="line"/>
      <point x="672" y="852" type="line" smooth="yes"/>
      <point x="730" y="852"/>
      <point x="759" y="991"/>
      <point x="759" y="1129" type="qcurve" smooth="yes"/>
      <point x="759" y="1260"/>
      <point x="731" y="1370"/>
      <point x="676" y="1370" type="qcurve" smooth="yes"/>
      <point x="649" y="1370" type="line"/>
      <point x="641" y="1363" type="line"/>
    </contour>
  </outline>
</glyph>
<glyph name="F" format="1">
  <advance width="1126"/>
  <unicode hex="0046"/>
  <outline>
    <contour>
      <point x="82" y="0" type="line"/>
      <point x="82" y="100" type="line"/>
      <point x="199" y="137" type="line"/>
      <point x="201" y="760" type="line"/>
      <point x="199" y="1352" type="line"/>
      <point x="82" y="1386" type="line"/>
      <point x="82" y="1500" type="line"/>
      <point x="1155" y="1500" type="line"/>
      <point x="1155" y="1166" type="line"/>
      <point x="1050" y="1166" type="line"/>
      <point x="1013" y="1382" type="line"/>
      <point x="753" y="1382" type="line"/>
      <point x="703" y="1357" type="line"/>
      <point x="707" y="760" type="line"/>
      <point x="709" y="132" type="line"/>
      <point x="840" y="100" type="line"/>
      <point x="840" y="0" type="line"/>
    </contour>
    <contour>
      <point x="457" y="722" type="line"/>
      <point x="457" y="824" type="line"/>
      <point x="948" y="831" type="line"/>
      <point x="972" y="981" type="line"/>
      <point x="1069" y="981" type="line"/>
      <point x="1069" y="546" type="line"/>
      <point x="972" y="546" type="line"/>
      <point x="948" y="715" type="line"/>
    </contour>
  </outline>
</glyph>
<glyph name="H" format="1">
  <advance width="1740"/>
  <unicode hex="0048"/>
  <outline>
    <contour>
      <point x="82" y="0" type="line"/>
      <point x="82" y="100" type="line"/>
      <point x="199" y="135" type="line"/>
      <point x="201" y="754" type="line"/>
      <point x="199" y="1352" type="line"/>
      <point x="82" y="1386" type="line"/>
      <point x="82" y="1500" type="line"/>
      <point x="815" y="1500" type="line"/>
      <point x="815" y="1386" type="line"/>
      <point x="703" y="1352" type="line"/>
      <point x="701" y="754" type="line"/>
      <point x="703" y="135" type="line"/>
      <point x="815" y="100" type="line"/>
      <point x="815" y="0" type="line"/>
    </contour>
    <contour>
      <point x="456" y="716" type="line"/>
      <point x="456" y="848" type="line"/>
      <point x="910" y="840" type="line"/>
      <point x="1386" y="848" type="line"/>
      <point x="1386" y="716" type="line"/>
      <point x="910" y="716" type="line"/>
    </contour>
    <contour>
      <point x="1005" y="0" type="line"/>
      <point x="1005" y="100" type="line"/>
      <point x="1118" y="135" type="line"/>
      <point x="1120" y="754" type="line"/>
      <point x="1118" y="1352" type="line"/>
      <point x="1005" y="1386" type="line"/>
      <point x="1005" y="1500" type="line"/>
      <point x="1738" y="1500" type="line"/>
      <point x="1738" y="1386" type="line"/>
      <point x="1622" y="1352" type="line"/>
      <point x="1620" y="754" type="line"/>
      <point x="1622" y="135" type="line"/>
      <point x="1738" y="100" type="line"/>
      <point x="1738" y="0" type="line"/>
    </contour>
  </outline>
</glyph>
<glyph name="I" format="1">
  <advance width="780"/>
  <unicode hex="0049"/>
  <outline>
    <contour>
      <point x="82" y="0" type="line"/>
      <point x="82" y="100" type="line"/>
      <point x="185" y="135" type="line"/>
      <point x="187" y="754" type="line"/>
      <point x="185" y="1352" type="line"/>
      <point x="82" y="1386" type="line"/>
      <point x="82" y="1500" type="line"/>
      <point x="794" y="1500" type="line"/>
      <point x="794" y="1386" type="line"/>
      <point x="691" y="1352" type="line"/>
      <point x="689" y="754" type="line"/>
      <point x="691" y="136" type="line"/>
      <point x="794" y="100" type="line"/>
      <point x="794" y="0" type="line"/>
    </contour>
  </outline>
</glyph>
<glyph name="K" format="1">
  <advance width="1440"/>
  <unicode hex="004B"/>
  <outline>
    <contour>
      <point x="82" y="0" type="line"/>
      <point x="82" y="100" type="line"/>
      <point x="170" y="135" type="line"/>
      <point x="172" y="754" type="line"/>
      <point x="170" y="1352" type="line"/>
      <point x="82" y="1386" type="line"/>
      <point x="82" y="1500" type="line"/>
      <point x="754" y="1500" type="line"/>
      <point x="754" y="1386" type="line"/>
      <point x="671" y="1352" type="line"/>
      <point x="664" y="754" type="line"/>
      <point x="671" y="135" type="line"/>
      <point x="754" y="100" type="line"/>
      <point x="754" y="0" type="line"/>
    </contour>
    <contour>
      <point x="543" y="394" type="line"/>
      <point x="526" y="571" type="line"/>
      <point x="1075" y="1348" type="line"/>
      <point x="977" y="1386" type="line"/>
      <point x="977" y="1500" type="line"/>
      <point x="1354" y="1500" type="line"/>
      <point x="1354" y="1386" type="line"/>
      <point x="1232" y="1348" type="line"/>
    </contour>
    <contour>
      <point x="732" y="693" type="line"/>
      <point x="1060" y="1128" type="line"/>
      <point x="1407" y="135" type="line"/>
      <point x="1483" y="100" type="line"/>
      <point x="1483" y="0" type="line"/>
      <point x="839" y="0" type="line"/>
      <point x="839" y="100" type="line"/>
      <point x="908" y="135" type="line"/>
    </contour>
  </outline>
</glyph>
<glyph name="L" format="1">
  <advance width="1264"/>
  <unicode hex="004C"/>
  <outline>
    <contour>
      <point x="82" y="0" type="line"/>
      <point x="82" y="100" type="line"/>
      <point x="210" y="133" type="line"/>
      <point x="212" y="754" type="line"/>
      <point x="210" y="1352" type="line"/>
      <point x="82" y="1386" type="line"/>
      <point x="82" y="1500" type="line"/>
      <point x="862" y="1500" type="line"/>
      <point x="862" y="1386" type="line"/>
      <point x="714" y="1352" type="line"/>
      <point x="712" y="754" type="line"/>
      <point x="714" y="135" type="line"/>
      <point x="744" y="108" type="line"/>
      <point x="1112" y="108" type="line"/>
      <point x="1191" y="397" type="line"/>
      <point x="1299" y="397" type="line"/>
      <point x="1255" y="0" type="line"/>
    </contour>
  </outline>
</glyph>
<glyph name="M" format="1">
  <advance width="2116"/>
  <unicode hex="004D"/>
  <outline>
    <contour>
      <point x="82" y="0" type="line"/>
      <point x="82" y="100" type="line"/>
      <point x="218" y="135" type="line"/>
      <point x="220" y="754" type="line"/>
      <point x="218" y="1352" type="line"/>
      <point x="82" y="1386" type="line"/>
      <point x="82" y="1500" type="line"/>
      <point x="748" y="1500" type="line"/>
      <point x="910" y="927" type="line"/>
      <point x="1052" y="435" type="line"/>
      <point x="1198" y="917" type="line"/>
      <point x="1370" y="1500" type="line"/>
      <point x="2096" y="1500" type="line"/>
      <point x="2096" y="1386" type="line"/>
      <point x="1960" y="1352" type="line"/>
      <point x="1958" y="754" type="line"/>
      <point x="1960" y="135" type="line"/>
      <point x="2096" y="100" type="line"/>
      <point x="2096" y="0" type="line"/>
      <point x="1300" y="0" type="line"/>
      <point x="1300" y="100" type="line"/>
      <point x="1457" y="135" type="line"/>
      <point x="1459" y="752" type="line"/>
      <point x="1457" y="1327" type="line"/>
      <point x="1298" y="768" type="line"/>
      <point x="1098" y="-5" type="line"/>
      <point x="693" y="-5" type="line"/>
      <point x="508" y="736" type="line"/>
      <point x="341" y="1338" type="line"/>
      <point x="339" y="754" type="line"/>
      <point x="341" y="135" type="line"/>
      <point x="484" y="100" type="line"/>
      <point x="484" y="0" type="line"/>
    </contour>
  </outline>
</glyph>
<glyph name="N" format="1">
  <advance width="1610"/>
  <unicode hex="004E"/>
  <outline>
    <contour>
      <point x="82" y="0" type="line"/>
      <point x="82" y="100" type="line"/>
      <point x="238" y="135" type="line"/>
      <point x="240" y="754" type="line"/>
      <point x="238" y="1352" type="line"/>
      <point x="82" y="1386" type="line"/>
      <point x="82" y="1500" type="line"/>
      <point x="792" y="1500" type="line"/>
      <point x="1077" y="881" type="line"/>
      <point x="1310" y="404" type="line"/>
      <point x="1310" y="790" type="line"/>
      <point x="1308" y="1352" type="line"/>
      <point x="1141" y="1386" type="line"/>
      <point x="1141" y="1500" type="line"/>
      <point x="1581" y="1500" type="line"/>
      <point x="1581" y="1386" type="line"/>
      <point x="1428" y="1352" type="line"/>
      <point x="1426" y="772" type="line"/>
      <point x="1422" y="0" type="line"/>
      <point x="940" y="0" type="line"/>
      <point x="616" y="661" type="line"/>
      <point x="355" y="1259" type="line"/>
      <point x="356" y="715" type="line"/>
      <point x="358" y="135" type="line"/>
      <point x="521" y="100" type="line"/>
      <point x="521" y="0" type="line"/>
    </contour>
  </outline>
</glyph>
<glyph name="Q" format="1">
  <advance width="1664"/>
  <unicode hex="0051"/>
  <outline>
    <contour>
      <point x="80" y="747" type="qcurve" smooth="yes"/>
      <point x="80" y="1115"/>
      <point x="500" y="1517"/>
      <point x="868" y="1517" type="qcurve" smooth="yes"/>
      <point x="1252" y="1517"/>
      <point x="1655" y="1136"/>
      <point x="1655" y="755" type="qcurve" smooth="yes"/>
      <point x="1655" y="372"/>
      <point x="1232" y="-12"/>
      <point x="868" y="-12" type="qcurve" smooth="yes"/>
      <point x="496" y="-12"/>
      <point x="80" y="376"/>
    </contour>
    <contour>
      <point x="625" y="776" type="qcurve" smooth="yes"/>
      <point x="626" y="383"/>
      <point x="752" y="107"/>
      <point x="866" y="107" type="qcurve" smooth="yes"/>
      <point x="987" y="107"/>
      <point x="1110" y="347"/>
      <point x="1111" y="751" type="qcurve" smooth="yes"/>
      <point x="1112" y="1149"/>
      <point x="983" y="1380"/>
      <point x="868" y="1380" type="qcurve" smooth="yes"/>
      <point x="745" y="1380"/>
      <point x="624" y="1169"/>
    </contour>
    <contour>
      <point x="169" y="-378" type="line"/>
      <point x="242" y="-198"/>
      <point x="473" y="-39"/>
      <point x="581" y="-39" type="qcurve"/>
      <point x="1254" y="-180" type="line"/>
      <point x="1368" y="-180"/>
      <point x="1518" y="-115"/>
      <point x="1551" y="-35" type="qcurve"/>
      <point x="1623" y="-80" type="line"/>
      <point x="1586" y="-245"/>
      <point x="1405" y="-476"/>
      <point x="1254" y="-476" type="qcurve"/>
      <point x="560" y="-312" type="line"/>
      <point x="426" y="-312"/>
      <point x="280" y="-357"/>
      <point x="230" y="-435" type="qcurve"/>
    </contour>
    <contour>
      <point x="482" y="-127" type="line"/>
      <point x="671" y="54" type="line"/>
      <point x="676" y="69"/>
      <point x="687" y="85"/>
      <point x="700" y="97" type="qcurve"/>
      <point x="732" y="92"/>
      <point x="791" y="74"/>
      <point x="822" y="55" type="qcurve"/>
      <point x="816" y="42"/>
      <point x="798" y="25"/>
      <point x="786" y="12" type="qcurve"/>
      <point x="601" y="-169" type="line"/>
    </contour>
  </outline>
</glyph>
<glyph name="T" format="1">
  <advance width="1288"/>
  <unicode hex="0054"/>
  <outline>
    <contour>
      <point x="40" y="1086" type="line"/>
      <point x="40" y="1500" type="line"/>
      <point x="1288" y="1500" type="line"/>
      <point x="1288" y="1086" type="line"/>
      <point x="1184" y="1086" type="line"/>
      <point x="1149" y="1394" type="line"/>
      <point x="927" y="1394" type="line"/>
      <point x="909" y="1379" type="line"/>
      <point x="912" y="754" type="line"/>
      <point x="914" y="136" type="line"/>
      <point x="1026" y="100" type="line"/>
      <point x="1026" y="0" type="line"/>
      <point x="297" y="0" type="line"/>
      <point x="297" y="100" type="line"/>
      <point x="411" y="136" type="line"/>
      <point x="413" y="754" type="line"/>
      <point x="416" y="1378" type="line"/>
      <point x="405" y="1394" type="line"/>
      <point x="179" y="1394" type="line"/>
      <point x="144" y="1086" type="line"/>
    </contour>
  </outline>
</glyph>
<glyph name="U" format="1">
  <advance width="1632"/>
  <unicode hex="0055"/>
  <outline>
    <contour>
      <point x="74" y="1386" type="line"/>
      <point x="74" y="1500" type="line"/>
      <point x="902" y="1500" type="line"/>
      <point x="902" y="1386" type="line"/>
      <point x="748" y="1352" type="line"/>
      <point x="743" y="794" type="line"/>
      <point x="746" y="442" type="line" smooth="yes"/>
      <point x="746" y="269"/>
      <point x="890" y="111"/>
      <point x="1033" y="111" type="qcurve" smooth="yes"/>
      <point x="1168" y="111"/>
      <point x="1313" y="276"/>
      <point x="1314" y="457" type="qcurve" smooth="yes"/>
      <point x="1315" y="794" type="line"/>
      <point x="1314" y="1352" type="line"/>
      <point x="1151" y="1386" type="line"/>
      <point x="1151" y="1500" type="line"/>
      <point x="1614" y="1500" type="line"/>
      <point x="1614" y="1386" type="line"/>
      <point x="1456" y="1352" type="line"/>
      <point x="1455" y="794" type="line"/>
      <point x="1457" y="476" type="line" smooth="yes"/>
      <point x="1460" y="232"/>
      <point x="1182" y="-25"/>
      <point x="882" y="-25" type="qcurve" smooth="yes"/>
      <point x="535" y="-25"/>
      <point x="231" y="224"/>
      <point x="232" y="477" type="qcurve" smooth="yes"/>
      <point x="233" y="794" type="line"/>
      <point x="232" y="1352" type="line"/>
    </contour>
  </outline>
</glyph>
<glyph name="V" format="1">
  <advance width="1426"/>
  <unicode hex="0056"/>
  <outline>
    <contour>
      <point x="-30" y="1390" type="line"/>
      <point x="-30" y="1500" type="line"/>
      <point x="699" y="1500" type="line"/>
      <point x="699" y="1390" type="line"/>
      <point x="591" y="1349" type="line"/>
      <point x="731" y="880" type="line"/>
      <point x="891" y="378" type="line"/>
      <point x="1040" y="866" type="line"/>
      <point x="1185" y="1356" type="line"/>
      <point x="1064" y="1390" type="line"/>
      <point x="1064" y="1500" type="line"/>
      <point x="1445" y="1500" type="line"/>
      <point x="1445" y="1390" type="line"/>
      <point x="1326" y="1351" type="line"/>
      <point x="1160" y="831" type="line"/>
      <point x="936" y="-4" type="line"/>
      <point x="473" y="-4" type="line"/>
      <point x="254" y="795" type="line"/>
      <point x="76" y="1351" type="line"/>
    </contour>
  </outline>
</glyph>
<glyph name="W" format="1">
  <advance width="2102"/>
  <unicode hex="0057"/>
  <outline>
    <contour>
      <point x="-30" y="1390" type="line"/>
      <point x="-30" y="1500" type="line"/>
      <point x="660" y="1500" type="line"/>
      <point x="660" y="1390" type="line"/>
      <point x="560" y="1349" type="line"/>
      <point x="674" y="894" type="line"/>
      <point x="798" y="414" type="line"/>
      <point x="911" y="848" type="line"/>
      <point x="1009" y="1239" type="line"/>
      <point x="1092" y="1054" type="line"/>
      <point x="1018" y="807" type="line"/>
      <point x="838" y="-4" type="line"/>
      <point x="401" y="-4" type="line"/>
      <point x="222" y="786" type="line"/>
      <point x="65" y="1351" type="line"/>
    </contour>
    <contour>
      <point x="804" y="1394" type="line"/>
      <point x="804" y="1500" type="line"/>
      <point x="1467" y="1500" type="line"/>
      <point x="1467" y="1394" type="line"/>
      <point x="1372" y="1353" type="line"/>
      <point x="1481" y="906" type="line"/>
      <point x="1608" y="418" type="line"/>
      <point x="1731" y="896" type="line"/>
      <point x="1839" y="1356" type="line"/>
      <point x="1728" y="1390" type="line"/>
      <point x="1728" y="1500" type="line"/>
      <point x="2105" y="1500" type="line"/>
      <point x="2105" y="1390" type="line"/>
      <point x="1993" y="1351" type="line"/>
      <point x="1855" y="861" type="line"/>
      <point x="1663" y="-4" type="line"/>
      <point x="1237" y="-4" type="line"/>
      <point x="1063" y="766" type="line"/>
      <point x="896" y="1355" type="line"/>
    </contour>
  </outline>
</glyph>
<glyph name="Y" format="1">
  <advance width="1266"/>
  <unicode hex="0059"/>
  <outline>
    <contour>
      <point x="-30" y="1386" type="line"/>
      <point x="-30" y="1500" type="line"/>
      <point x="685" y="1500" type="line"/>
      <point x="685" y="1386" type="line"/>
      <point x="607" y="1351" type="line"/>
      <point x="713" y="1047" type="line"/>
      <point x="807" y="842" type="line"/>
      <point x="910" y="1064" type="line"/>
      <point x="1015" y="1358" type="line"/>
      <point x="922" y="1386" type="line"/>
      <point x="922" y="1500" type="line"/>
      <point x="1250" y="1500" type="line"/>
      <point x="1250" y="1386" type="line"/>
      <point x="1164" y="1359" type="line"/>
      <point x="1016" y="1024" type="line"/>
      <point x="869" y="664" type="line"/>
      <point x="871" y="135" type="line"/>
      <point x="971" y="104" type="line"/>
      <point x="971" y="0" type="line"/>
      <point x="262" y="0" type="line"/>
      <point x="262" y="104" type="line"/>
      <point x="365" y="135" type="line"/>
      <point x="367" y="659" type="line"/>
      <point x="220" y="1002" type="line"/>
      <point x="51" y="1360" type="line"/>
    </contour>
  </outline>
</glyph>
<glyph name="backslash" format="1">
  <advance width="656"/>
  <unicode hex="005C"/>
  <outline>
    <contour>
      <point x="-30" y="1457" type="line"/>
      <point x="292" y="1547" type="line"/>
      <point x="639" y="-98" type="line"/>
      <point x="317" y="-184" type="line"/>
    </contour>
  </outline>
</glyph>
<glyph name="grave" format="1">
  <advance width="1024"/>
  <unicode hex="0060"/>
  <outline>
    <contour>
      <point x="294" y="1341" type="qcurve" smooth="yes"/>
      <point x="294" y="1385"/>
      <point x="364" y="1456"/>
      <point x="435" y="1456" type="qcurve" smooth="yes"/>
      <point x="504" y="1456"/>
      <point x="603" y="1376"/>
      <point x="650" y="1317" type="qcurve" smooth="yes"/>
      <point x="861" y="1060" type="line"/>
      <point x="631" y="1060" type="line"/>
      <point x="418" y="1198" type="line"/>
      <point x="358" y="1229"/>
      <point x="294" y="1296"/>
    </contour>
  </outline>
</glyph>
<glyph name="a" format="1">
  <advance width="1032"/>
  <unicode hex="0061"/>
  <outline>
    <contour>
      <point x="38" y="265" type="qcurve" smooth="yes"/>
      <point x="38" y="405"/>
      <point x="287" y="604"/>
      <point x="573" y="668" type="qcurve"/>
      <point x="576" y="594" type="line"/>
      <point x="518" y="562"/>
      <point x="494" y="391"/>
      <point x="494" y="253" type="qcurve" smooth="yes"/>
      <point x="494" y="145"/>
      <point x="509" y="108"/>
      <point x="525" y="108" type="qcurve" smooth="yes"/>
      <point x="545" y="108"/>
      <point x="564" y="151"/>
      <point x="564" y="264" type="qcurve"/>
      <point x="629" y="264" type="line"/>
      <point x="629" y="125"/>
      <point x="498" y="-9"/>
      <point x="333" y="-9" type="qcurve" smooth="yes"/>
      <point x="178" y="-9"/>
      <point x="38" y="142"/>
    </contour>
    <contour>
      <point x="195" y="841" type="line"/>
      <point x="267" y="931"/>
      <point x="464" y="1022"/>
      <point x="638" y="1022" type="qcurve" smooth="yes"/>
      <point x="831" y="1022"/>
      <point x="1050" y="873"/>
      <point x="1051" y="713" type="qcurve" smooth="yes"/>
      <point x="1056" y="115" type="line"/>
      <point x="1101" y="80" type="line"/>
      <point x="1101" y="0" type="line"/>
      <point x="635" y="0" type="line"/>
      <point x="582" y="63" type="line"/>
      <point x="564" y="165" type="line"/>
      <point x="566" y="715" type="line" smooth="yes"/>
      <point x="566" y="835"/>
      <point x="515" y="905"/>
      <point x="459" y="905" type="qcurve" smooth="yes"/>
      <point x="419" y="905"/>
      <point x="325" y="862"/>
      <point x="259" y="789" type="qcurve"/>
    </contour>
  </outline>
</glyph>
<glyph name="b" format="1">
  <advance width="1158"/>
  <unicode hex="0062"/>
  <outline>
    <contour>
      <point x="0" y="1406" type="line"/>
      <point x="0" y="1500" type="line"/>
      <point x="497" y="1534" type="line"/>
      <point x="528" y="1534" type="line"/>
      <point x="556" y="1502" type="line"/>
      <point x="549" y="428" type="line"/>
      <point x="544" y="69" type="line"/>
      <point x="465" y="0" type="line"/>
      <point x="61" y="0" type="line"/>
      <point x="72" y="427" type="line"/>
      <point x="61" y="1376" type="line"/>
    </contour>
    <contour>
      <point x="503" y="92" type="qcurve"/>
      <point x="544" y="174" type="line"/>
      <point x="546" y="133"/>
      <point x="566" y="100"/>
      <point x="593" y="100" type="qcurve" smooth="yes"/>
      <point x="630" y="100"/>
      <point x="660" y="217"/>
      <point x="660" y="505" type="qcurve" smooth="yes"/>
      <point x="660" y="796"/>
      <point x="632" y="884"/>
      <point x="606" y="884" type="qcurve" smooth="yes"/>
      <point x="582" y="884"/>
      <point x="557" y="838"/>
      <point x="551" y="795" type="qcurve"/>
      <point x="512" y="864" type="line"/>
      <point x="541" y="913"/>
      <point x="697" y="1020"/>
      <point x="827" y="1020" type="qcurve" smooth="yes"/>
      <point x="974" y="1020"/>
      <point x="1161" y="791"/>
      <point x="1161" y="530" type="qcurve" smooth="yes"/>
      <point x="1161" y="268"/>
      <point x="960" y="-12"/>
      <point x="778" y="-12" type="qcurve" smooth="yes"/>
      <point x="680" y="-12"/>
      <point x="530" y="40"/>
    </contour>
  </outline>
</glyph>
<glyph name="f" format="1">
  <advance width="628"/>
  <unicode hex="0066"/>
  <outline>
    <contour>
      <point x="54" y="0" type="line"/>
      <point x="54" y="80" type="line"/>
      <point x="107" y="115" type="line"/>
      <point x="112" y="527" type="line"/>
      <point x="112" y="846" type="line"/>
      <point x="54" y="880" type="line"/>
      <point x="54" y="974" type="line"/>
      <point x="114" y="984" type="line"/>
      <point x="112" y="1237" type="line" smooth="yes"/>
      <point x="110" y="1382"/>
      <point x="271" y="1532"/>
      <point x="440" y="1532" type="qcurve"/>
      <point x="703" y="1500" type="line"/>
      <point x="703" y="1410" type="line"/>
      <point x="605" y="1404" type="line"/>
      <point x="600" y="528" type="line"/>
      <point x="604" y="115" type="line"/>
      <point x="693" y="80" type="line"/>
      <point x="693" y="0" type="line"/>
    </contour>
    <contour>
      <point x="564" y="872" type="line"/>
      <point x="568" y="974" type="line"/>
      <point x="704" y="974" type="line"/>
      <point x="704" y="872" type="line"/>
    </contour>
  </outline>
</glyph>
<glyph name="g" format="1">
  <advance width="1048"/>
  <unicode hex="0067"/>
  <outline>
    <contour>
      <point x="24" y="-193" type="qcurve" smooth="yes"/>
      <point x="24" y="-100"/>
      <point x="231" y="32"/>
      <point x="426" y="46" type="qcurve"/>
      <point x="472" y="10" type="line"/>
      <point x="413" y="-21"/>
      <point x="323" y="-125"/>
      <point x="323" y="-184" type="qcurve" smooth="yes"/>
      <point x="323" y="-256"/>
      <point x="442" y="-324"/>
      <point x="539" y="-324" type="qcurve" smooth="yes"/>
      <point x="670" y="-324"/>
      <point x="775" y="-250"/>
      <point x="775" y="-181" type="qcurve" smooth="yes"/>
      <point x="775" y="-118"/>
      <point x="672" y="-74"/>
      <point x="560" y="-68" type="qcurve" smooth="yes"/>
      <point x="285" y="-56"/>
      <point x="84" y="64"/>
      <point x="84" y="166" type="qcurve" smooth="yes"/>
      <point x="84" y="261"/>
      <point x="193" y="364"/>
      <point x="260" y="388" type="qcurve"/>
      <point x="332" y="336" type="line"/>
      <point x="292" y="312"/>
      <point x="257" y="284"/>
      <point x="257" y="247" type="qcurve" smooth="yes"/>
      <point x="257" y="207"/>
      <point x="358" y="174"/>
      <point x="590" y="165" type="qcurve" smooth="yes"/>
      <point x="909" y="154"/>
      <point x="1213" y="38"/>
      <point x="1213" y="-108" type="qcurve" smooth="yes"/>
      <point x="1213" y="-271"/>
      <point x="883" y="-429"/>
      <point x="581" y="-429" type="qcurve" smooth="yes"/>
      <point x="270" y="-429"/>
      <point x="24" y="-296"/>
    </contour>
    <contour>
      <point x="97" y="638" type="qcurve" smooth="yes"/>
      <point x="97" y="828"/>
      <point x="329" y="1022"/>
      <point x="569" y="1022" type="qcurve" smooth="yes"/>
      <point x="809" y="1022"/>
      <point x="1049" y="833"/>
      <point x="1051" y="643" type="qcurve" smooth="yes"/>
      <point x="1052" y="454"/>
      <point x="807" y="236"/>
      <point x="575" y="236" type="qcurve" smooth="yes"/>
      <point x="342" y="236"/>
      <point x="97" y="448"/>
    </contour>
    <contour>
      <point x="508" y="637" type="qcurve" smooth="yes"/>
      <point x="508" y="435"/>
      <point x="539" y="336"/>
      <point x="578" y="336" type="qcurve" smooth="yes"/>
      <point x="618" y="336"/>
      <point x="648" y="437"/>
      <point x="648" y="637" type="qcurve" smooth="yes"/>
      <point x="648" y="834"/>
      <point x="615" y="911"/>
      <point x="578" y="911" type="qcurve" smooth="yes"/>
      <point x="541" y="911"/>
      <point x="508" y="836"/>
    </contour>
    <contour>
      <point x="647" y="943" type="line"/>
      <point x="632" y="1000" type="line"/>
      <point x="1121" y="1018" type="line"/>
      <point x="1121" y="901" type="line"/>
    </contour>
  </outline>
</glyph>
<glyph name="h" format="1">
  <advance width="1258"/>
  <unicode hex="0068"/>
  <outline>
    <contour>
      <point x="64" y="0" type="line"/>
      <point x="64" y="80" type="line"/>
      <point x="120" y="115" type="line"/>
      <point x="122" y="527" type="line"/>
      <point x="120" y="1376" type="line"/>
      <point x="52" y="1406" type="line"/>
      <point x="52" y="1500" type="line"/>
      <point x="552" y="1534" type="line"/>
      <point x="584" y="1534" type="line"/>
      <point x="613" y="1502" type="line"/>
      <point x="610" y="527" type="line"/>
      <point x="612" y="115" type="line"/>
      <point x="657" y="80" type="line"/>
      <point x="657" y="0" type="line"/>
    </contour>
    <contour>
      <point x="609" y="818" type="qcurve"/>
      <point x="573" y="856" type="line"/>
      <point x="623" y="935"/>
      <point x="798" y="1022"/>
      <point x="945" y="1022" type="qcurve" smooth="yes"/>
      <point x="1090" y="1022"/>
      <point x="1232" y="914"/>
      <point x="1234" y="825" type="qcurve" smooth="yes"/>
      <point x="1234" y="788"/>
      <point x="1232" y="527"/>
      <point x="1232" y="527" type="qcurve"/>
      <point x="1237" y="115" type="line"/>
      <point x="1293" y="80" type="line"/>
      <point x="1293" y="0" type="line"/>
      <point x="702" y="0" type="line"/>
      <point x="702" y="80" type="line"/>
      <point x="745" y="115" type="line"/>
      <point x="747" y="527" type="line"/>
      <point x="747" y="798" type="line" smooth="yes"/>
      <point x="747" y="830"/>
      <point x="718" y="863"/>
      <point x="689" y="863" type="qcurve" smooth="yes"/>
      <point x="668" y="863"/>
      <point x="625" y="840"/>
    </contour>
  </outline>
</glyph>
<glyph name="i" format="1">
  <advance width="639"/>
  <unicode hex="0069"/>
  <outline>
    <contour>
      <point x="78" y="0" type="line"/>
      <point x="78" y="80" type="line"/>
      <point x="133" y="115" type="line"/>
      <point x="135" y="527" type="line"/>
      <point x="131" y="855" type="line"/>
      <point x="72" y="885" type="line"/>
      <point x="72" y="979" type="line"/>
      <point x="564" y="1007" type="line"/>
      <point x="609" y="1007" type="line"/>
      <point x="632" y="968" type="line"/>
      <point x="625" y="527" type="line"/>
      <point x="627" y="115" type="line"/>
      <point x="680" y="80" type="line"/>
      <point x="680" y="0" type="line"/>
    </contour>
    <contour>
      <point x="98" y="1304" type="qcurve" smooth="yes"/>
      <point x="98" y="1387"/>
      <point x="236" y="1484"/>
      <point x="364" y="1484" type="qcurve" smooth="yes"/>
      <point x="486" y="1484"/>
      <point x="632" y="1385"/>
      <point x="632" y="1305" type="qcurve" smooth="yes"/>
      <point x="632" y="1224"/>
      <point x="494" y="1161"/>
      <point x="365" y="1161" type="qcurve" smooth="yes"/>
      <point x="245" y="1161"/>
      <point x="98" y="1229"/>
    </contour>
  </outline>
</glyph>
<glyph name="k" format="1">
  <advance width="1072"/>
  <unicode hex="006B"/>
  <outline>
    <contour>
      <point x="56" y="0" type="line"/>
      <point x="56" y="80" type="line"/>
      <point x="99" y="115" type="line"/>
      <point x="101" y="527" type="line"/>
      <point x="99" y="1376" type="line"/>
      <point x="52" y="1406" type="line"/>
      <point x="52" y="1500" type="line"/>
      <point x="531" y="1534" type="line"/>
      <point x="563" y="1534" type="line"/>
      <point x="591" y="1502" type="line"/>
      <point x="589" y="507" type="line"/>
      <point x="591" y="115" type="line"/>
      <point x="621" y="80" type="line"/>
      <point x="621" y="0" type="line"/>
    </contour>
    <contour>
      <point x="545" y="348" type="line"/>
      <point x="537" y="457" type="line"/>
      <point x="861" y="880" type="line"/>
      <point x="810" y="910" type="line"/>
      <point x="810" y="1000" type="line"/>
      <point x="1085" y="1000" type="line"/>
      <point x="1085" y="910" type="line"/>
      <point x="991" y="875" type="line"/>
    </contour>
    <contour>
      <point x="610" y="483" type="line"/>
      <point x="945" y="839" type="line"/>
      <point x="1192" y="115" type="line"/>
      <point x="1240" y="80" type="line"/>
      <point x="1240" y="0" type="line"/>
      <point x="775" y="0" type="line"/>
      <point x="741" y="25" type="line"/>
      <point x="697" y="115" type="line"/>
    </contour>
  </outline>
</glyph>
<glyph name="l" format="1">
  <advance width="632"/>
  <unicode hex="006C"/>
  <outline>
    <contour>
      <point x="68" y="0" type="line"/>
      <point x="68" y="80" type="line"/>
      <point x="125" y="115" type="line"/>
      <point x="127" y="527" type="line"/>
      <point x="125" y="1376" type="line"/>
      <point x="52" y="1406" type="line"/>
      <point x="52" y="1500" type="line"/>
      <point x="558" y="1534" type="line"/>
      <point x="595" y="1532" type="line"/>
      <point x="618" y="1501" type="line"/>
      <point x="616" y="527" type="line"/>
      <point x="618" y="115" type="line"/>
      <point x="672" y="80" type="line"/>
      <point x="672" y="0" type="line"/>
    </contour>
  </outline>
</glyph>
<glyph name="m" format="1">
  <advance width="1916"/>
  <unicode hex="006D"/>
  <outline>
    <contour>
      <point x="76" y="0" type="line"/>
      <point x="76" y="80" type="line"/>
      <point x="136" y="115" type="line"/>
      <point x="138" y="527" type="line"/>
      <point x="136" y="850" type="line"/>
      <point x="76" y="880" type="line"/>
      <point x="76" y="974" type="line"/>
      <point x="565" y="1008" type="line"/>
      <point x="600" y="981" type="line"/>
      <point x="625" y="880" type="line"/>
      <point x="623" y="527" type="line"/>
      <point x="625" y="115" type="line"/>
      <point x="673" y="80" type="line"/>
      <point x="673" y="0" type="line"/>
    </contour>
    <contour>
      <point x="623" y="813" type="qcurve"/>
      <point x="586" y="852" type="line"/>
      <point x="643" y="932"/>
      <point x="831" y="1022"/>
      <point x="970" y="1022" type="qcurve" smooth="yes"/>
      <point x="1118" y="1022"/>
      <point x="1261" y="912"/>
      <point x="1261" y="833" type="qcurve" smooth="yes"/>
      <point x="1261" y="767"/>
      <point x="1258" y="527"/>
      <point x="1258" y="527" type="qcurve"/>
      <point x="1263" y="115" type="line"/>
      <point x="1312" y="80" type="line"/>
      <point x="1312" y="0" type="line"/>
      <point x="724" y="0" type="line"/>
      <point x="724" y="80" type="line"/>
      <point x="771" y="115" type="line"/>
      <point x="773" y="527" type="line"/>
      <point x="773" y="794" type="line" smooth="yes"/>
      <point x="773" y="829"/>
      <point x="739" y="863"/>
      <point x="710" y="863" type="qcurve" smooth="yes"/>
      <point x="687" y="863"/>
      <point x="642" y="838"/>
    </contour>
    <contour>
      <point x="1253" y="813" type="qcurve"/>
      <point x="1221" y="852" type="line"/>
      <point x="1279" y="931"/>
      <point x="1462" y="1021"/>
      <point x="1601" y="1021" type="qcurve" smooth="yes"/>
      <point x="1751" y="1021"/>
      <point x="1894" y="934"/>
      <point x="1894" y="868" type="qcurve" smooth="yes"/>
      <point x="1894" y="801"/>
      <point x="1894" y="527"/>
      <point x="1894" y="527" type="qcurve"/>
      <point x="1899" y="115" type="line"/>
      <point x="1959" y="80" type="line"/>
      <point x="1959" y="0" type="line"/>
      <point x="1361" y="0" type="line"/>
      <point x="1361" y="80" type="line"/>
      <point x="1407" y="115" type="line"/>
      <point x="1409" y="527" type="line"/>
      <point x="1409" y="794" type="line" smooth="yes"/>
      <point x="1409" y="829"/>
      <point x="1377" y="863"/>
      <point x="1346" y="863" type="qcurve" smooth="yes"/>
      <point x="1320" y="863"/>
      <point x="1274" y="838"/>
    </contour>
  </outline>
</glyph>
<glyph name="n" format="1">
  <advance width="1264"/>
  <unicode hex="006E"/>
  <outline>
    <contour>
      <point x="76" y="0" type="line"/>
      <point x="76" y="80" type="line"/>
      <point x="133" y="115" type="line"/>
      <point x="135" y="527" type="line"/>
      <point x="133" y="851" type="line"/>
      <point x="76" y="881" type="line"/>
      <point x="76" y="975" type="line"/>
      <point x="563" y="1009" type="line"/>
      <point x="598" y="982" type="line"/>
      <point x="623" y="881" type="line"/>
      <point x="621" y="527" type="line"/>
      <point x="623" y="115" type="line"/>
      <point x="669" y="80" type="line"/>
      <point x="669" y="0" type="line"/>
    </contour>
    <contour>
      <point x="622" y="815" type="qcurve"/>
      <point x="586" y="856" type="line"/>
      <point x="641" y="937"/>
      <point x="823" y="1023"/>
      <point x="963" y="1023" type="qcurve" smooth="yes"/>
      <point x="1109" y="1023"/>
      <point x="1250" y="913"/>
      <point x="1250" y="826" type="qcurve" smooth="yes"/>
      <point x="1250" y="760"/>
      <point x="1249" y="529"/>
      <point x="1249" y="529" type="qcurve"/>
      <point x="1252" y="115" type="line"/>
      <point x="1310" y="80" type="line"/>
      <point x="1310" y="0" type="line"/>
      <point x="716" y="0" type="line"/>
      <point x="716" y="80" type="line"/>
      <point x="760" y="115" type="line"/>
      <point x="762" y="527" type="line"/>
      <point x="762" y="795" type="line" smooth="yes"/>
      <point x="762" y="829"/>
      <point x="732" y="863"/>
      <point x="703" y="863" type="qcurve" smooth="yes"/>
      <point x="679" y="863"/>
      <point x="638" y="839"/>
    </contour>
  </outline>
</glyph>
<glyph name="p" format="1">
  <advance width="1198"/>
  <unicode hex="0070"/>
  <outline>
    <contour>
      <point x="58" y="-417" type="line"/>
      <point x="58" y="-337" type="line"/>
      <point x="111" y="-302" type="line"/>
      <point x="113" y="427" type="line"/>
      <point x="111" y="851" type="line"/>
      <point x="56" y="881" type="line"/>
      <point x="56" y="975" type="line"/>
      <point x="540" y="1009" type="line"/>
      <point x="575" y="982" type="line"/>
      <point x="596" y="881" type="line"/>
      <point x="598" y="427" type="line"/>
      <point x="600" y="-302" type="line"/>
      <point x="662" y="-337" type="line"/>
      <point x="662" y="-417" type="line"/>
    </contour>
    <contour>
      <point x="558" y="68" type="qcurve"/>
      <point x="598" y="139" type="line"/>
      <point x="602" y="116"/>
      <point x="629" y="91"/>
      <point x="651" y="91" type="qcurve" smooth="yes"/>
      <point x="691" y="91"/>
      <point x="729" y="217"/>
      <point x="729" y="505" type="qcurve" smooth="yes"/>
      <point x="729" y="801"/>
      <point x="697" y="884"/>
      <point x="661" y="884" type="qcurve" smooth="yes"/>
      <point x="632" y="884"/>
      <point x="601" y="848"/>
      <point x="596" y="820" type="qcurve"/>
      <point x="571" y="896" type="line"/>
      <point x="608" y="950"/>
      <point x="761" y="1020"/>
      <point x="873" y="1020" type="qcurve" smooth="yes"/>
      <point x="1026" y="1020"/>
      <point x="1229" y="794"/>
      <point x="1229" y="530" type="qcurve" smooth="yes"/>
      <point x="1229" y="264"/>
      <point x="1020" y="-12"/>
      <point x="809" y="-12" type="qcurve" smooth="yes"/>
      <point x="723" y="-12"/>
      <point x="592" y="35"/>
    </contour>
  </outline>
</glyph>
<glyph name="r" format="1">
  <advance width="864"/>
  <unicode hex="0072"/>
  <outline>
    <contour>
      <point x="76" y="0" type="line"/>
      <point x="76" y="80" type="line"/>
      <point x="140" y="115" type="line"/>
      <point x="142" y="527" type="line"/>
      <point x="140" y="850" type="line"/>
      <point x="76" y="880" type="line"/>
      <point x="76" y="974" type="line"/>
      <point x="569" y="1008" type="line"/>
      <point x="604" y="981" type="line"/>
      <point x="629" y="880" type="line"/>
      <point x="626" y="527" type="line"/>
      <point x="629" y="115" type="line"/>
      <point x="698" y="80" type="line"/>
      <point x="698" y="0" type="line"/>
    </contour>
    <contour>
      <point x="563" y="698" type="qcurve"/>
      <point x="529" y="770" type="line"/>
      <point x="544" y="859"/>
      <point x="721" y="1005"/>
      <point x="856" y="1005" type="qcurve" smooth="yes"/>
      <point x="907" y="1005" type="line"/>
      <point x="907" y="703" type="line"/>
      <point x="808" y="703" type="line"/>
      <point x="785" y="875" type="line"/>
      <point x="716" y="875"/>
      <point x="598" y="784"/>
    </contour>
  </outline>
</glyph>
<glyph name="t" format="1">
  <advance width="612"/>
  <unicode hex="0074"/>
  <outline>
    <contour>
      <point x="16" y="876" type="line"/>
      <point x="16" y="970" type="line"/>
      <point x="68" y="1004"/>
      <point x="191" y="1147"/>
      <point x="224" y="1241" type="qcurve"/>
      <point x="521" y="1241" type="line"/>
      <point x="570" y="1179" type="line"/>
      <point x="553" y="527" type="line"/>
      <point x="562" y="144" type="line"/>
      <point x="591" y="117" type="line"/>
      <point x="671" y="117" type="line"/>
      <point x="671" y="37" type="line"/>
      <point x="211" y="-8" type="line"/>
      <point x="121" y="-8"/>
      <point x="66" y="59"/>
      <point x="66" y="100" type="qcurve" smooth="yes"/>
      <point x="73" y="527" type="line"/>
      <point x="73" y="850" type="line"/>
    </contour>
    <contour>
      <point x="430" y="872" type="line"/>
      <point x="434" y="974" type="line"/>
      <point x="671" y="974" type="line"/>
      <point x="671" y="872" type="line"/>
    </contour>
  </outline>
</glyph>
<glyph name="u" format="1">
  <advance width="1244"/>
  <unicode hex="0075"/>
  <outline>
    <contour>
      <point x="56" y="881" type="line"/>
      <point x="56" y="975" type="line"/>
      <point x="538" y="1009" type="line"/>
      <point x="573" y="1009" type="line"/>
      <point x="598" y="973" type="line"/>
      <point x="598" y="473" type="line"/>
      <point x="598" y="302" type="line" smooth="yes"/>
      <point x="598" y="184"/>
      <point x="625" y="141"/>
      <point x="651" y="141" type="qcurve" smooth="yes"/>
      <point x="680" y="141"/>
      <point x="719" y="194"/>
      <point x="729" y="250" type="qcurve"/>
      <point x="774" y="177" type="line"/>
      <point x="737" y="96"/>
      <point x="534" y="-16"/>
      <point x="406" y="-16" type="qcurve" smooth="yes"/>
      <point x="257" y="-16"/>
      <point x="109" y="117"/>
      <point x="109" y="281" type="qcurve" smooth="yes"/>
      <point x="109" y="352"/>
      <point x="111" y="473"/>
      <point x="111" y="473" type="qcurve"/>
      <point x="106" y="851" type="line"/>
    </contour>
    <contour>
      <point x="677" y="881" type="line"/>
      <point x="677" y="975" type="line"/>
      <point x="1158" y="1009" type="line"/>
      <point x="1193" y="1009" type="line"/>
      <point x="1218" y="973" type="line"/>
      <point x="1216" y="473" type="line"/>
      <point x="1218" y="140" type="line"/>
      <point x="1277" y="110" type="line"/>
      <point x="1277" y="26" type="line"/>
      <point x="786" y="-8" type="line"/>
      <point x="751" y="19" type="line"/>
      <point x="730" y="102" type="line"/>
      <point x="728" y="473" type="line"/>
      <point x="726" y="851" type="line"/>
    </contour>
  </outline>
</glyph>
<glyph name="v" format="1">
  <advance width="1046"/>
  <unicode hex="0076"/>
  <outline>
    <contour>
      <point x="-10" y="910" type="line"/>
      <point x="-10" y="1000" type="line"/>
      <point x="582" y="1000" type="line"/>
      <point x="582" y="910" type="line"/>
      <point x="526" y="873" type="line"/>
      <point x="617" y="593" type="line"/>
      <point x="706" y="329" type="line"/>
      <point x="784" y="617" type="line"/>
      <point x="858" y="880" type="line"/>
      <point x="798" y="910" type="line"/>
      <point x="798" y="1000" type="line"/>
      <point x="1040" y="1000" type="line"/>
      <point x="1040" y="910" type="line"/>
      <point x="978" y="875" type="line"/>
      <point x="886" y="588" type="line"/>
      <point x="734" y="-8" type="line"/>
      <point x="329" y="-8" type="line"/>
      <point x="181" y="459" type="line"/>
      <point x="39" y="875" type="line"/>
    </contour>
  </outline>
</glyph>
<glyph name="w" format="1">
  <advance width="1593"/>
  <unicode hex="0077"/>
  <outline>
    <contour>
      <point x="-10" y="910" type="line"/>
      <point x="-10" y="1000" type="line"/>
      <point x="551" y="1000" type="line"/>
      <point x="551" y="910" type="line"/>
      <point x="501" y="873" type="line"/>
      <point x="565" y="595" type="line"/>
      <point x="631" y="302" type="line"/>
      <point x="696" y="573" type="line"/>
      <point x="766" y="878" type="line"/>
      <point x="837" y="783" type="line"/>
      <point x="780" y="549" type="line"/>
      <point x="661" y="-8" type="line"/>
      <point x="252" y="-8" type="line"/>
      <point x="126" y="532" type="line"/>
      <point x="37" y="875" type="line"/>
    </contour>
    <contour>
      <point x="681" y="910" type="line"/>
      <point x="681" y="1000" type="line"/>
      <point x="1230" y="1000" type="line"/>
      <point x="1230" y="910" type="line"/>
      <point x="1170" y="873" type="line"/>
      <point x="1238" y="581" type="line"/>
      <point x="1302" y="304" type="line"/>
      <point x="1368" y="586" type="line"/>
      <point x="1434" y="880" type="line"/>
      <point x="1378" y="910" type="line"/>
      <point x="1378" y="1000" type="line"/>
      <point x="1603" y="1000" type="line"/>
      <point x="1603" y="910" type="line"/>
      <point x="1547" y="875" type="line"/>
      <point x="1471" y="569" type="line"/>
      <point x="1344" y="-8" type="line"/>
      <point x="935" y="-8" type="line"/>
      <point x="815" y="562" type="line"/>
      <point x="737" y="875" type="line"/>
    </contour>
  </outline>
</glyph>
<glyph name="y" format="1">
  <advance width="1046"/>
  <unicode hex="0079"/>
  <outline>
    <contour>
      <point x="-7" y="910" type="line"/>
      <point x="-7" y="1000" type="line"/>
      <point x="577" y="1000" type="line"/>
      <point x="577" y="910" type="line"/>
      <point x="520" y="873" type="line"/>
      <point x="617" y="592" type="line"/>
      <point x="709" y="330" type="line"/>
      <point x="792" y="616" type="line"/>
      <point x="869" y="880" type="line"/>
      <point x="807" y="910" type="line"/>
      <point x="807" y="1000" type="line"/>
      <point x="1054" y="1000" type="line"/>
      <point x="1054" y="910" type="line"/>
      <point x="990" y="875" type="line"/>
      <point x="889" y="584" type="line"/>
      <point x="717" y="-77" type="line"/>
      <point x="639" y="-301"/>
      <point x="339" y="-483"/>
      <point x="144" y="-483" type="qcurve"/>
      <point x="-10" y="-423" type="line"/>
      <point x="-10" y="-333" type="line"/>
      <point x="158" y="-339" type="line" smooth="yes"/>
      <point x="299" y="-344"/>
      <point x="539" y="-215"/>
      <point x="594" y="-89" type="qcurve"/>
      <point x="341" y="4" type="line"/>
      <point x="192" y="456" type="line"/>
      <point x="44" y="875" type="line"/>
    </contour>
  </outline>
</glyph>
<glyph name="braceleft" format="1">
  <advance width="693"/>
  <unicode hex="007B"/>
  <outline>
    <contour>
      <point x="60" y="481" type="line"/>
      <point x="60" y="589" type="line"/>
      <point x="116" y="598" type="line"/>
      <point x="165" y="610"/>
      <point x="241" y="663"/>
      <point x="241" y="743" type="qcurve" smooth="yes"/>
      <point x="241" y="834"/>
      <point x="91" y="1066"/>
      <point x="91" y="1184" type="qcurve" smooth="yes"/>
      <point x="91" y="1343"/>
      <point x="288" y="1510"/>
      <point x="401" y="1510" type="qcurve" smooth="yes"/>
      <point x="447" y="1510"/>
      <point x="682" y="1503"/>
      <point x="706" y="1500" type="qcurve"/>
      <point x="706" y="1386" type="line"/>
      <point x="673" y="1388"/>
      <point x="646" y="1388"/>
      <point x="614" y="1388" type="qcurve" smooth="yes"/>
      <point x="554" y="1388"/>
      <point x="489" y="1303"/>
      <point x="489" y="1208" type="qcurve" smooth="yes"/>
      <point x="489" y="1109"/>
      <point x="635" y="883"/>
      <point x="635" y="792" type="qcurve" smooth="yes"/>
      <point x="635" y="697"/>
      <point x="525" y="582"/>
      <point x="408" y="558" type="qcurve"/>
      <point x="526" y="538"/>
      <point x="635" y="422"/>
      <point x="635" y="345" type="qcurve" smooth="yes"/>
      <point x="635" y="244"/>
      <point x="479" y="-87"/>
      <point x="479" y="-186" type="qcurve" smooth="yes"/>
      <point x="479" y="-281"/>
      <point x="541" y="-372"/>
      <point x="606" y="-372" type="qcurve" smooth="yes"/>
      <point x="637" y="-372"/>
      <point x="670" y="-372"/>
      <point x="704" y="-370" type="qcurve"/>
      <point x="704" y="-482" type="line"/>
      <point x="680" y="-485"/>
      <point x="462" y="-495"/>
      <point x="416" y="-495" type="qcurve" smooth="yes"/>
      <point x="276" y="-495"/>
      <point x="81" y="-327"/>
      <point x="81" y="-168" type="qcurve" smooth="yes"/>
      <point x="81" y="-50"/>
      <point x="240" y="246"/>
      <point x="240" y="364" type="qcurve" smooth="yes"/>
      <point x="240" y="481" type="line"/>
    </contour>
  </outline>
</glyph>
<glyph name="bar" format="1">
  <advance width="604"/>
  <unicode hex="007C"/>
  <outline>
    <contour>
      <point x="207" y="-531" type="line"/>
      <point x="219" y="-58" type="line"/>
      <point x="224" y="250" type="line"/>
      <point x="222" y="830" type="line"/>
      <point x="219" y="1138" type="line"/>
      <point x="207" y="1489" type="line"/>
      <point x="619" y="1541" type="line"/>
      <point x="607" y="1138" type="line"/>
      <point x="602" y="830" type="line"/>
      <point x="604" y="250" type="line"/>
      <point x="607" y="-58" type="line"/>
      <point x="619" y="-479" type="line"/>
    </contour>
  </outline>
</glyph>
<glyph name="braceright" format="1">
  <advance width="693"/>
  <unicode hex="007D"/>
  <outline>
    <contour>
      <point x="656" y="481" type="line"/>
      <point x="476" y="481" type="line"/>
      <point x="476" y="364" type="line" smooth="yes"/>
      <point x="476" y="246"/>
      <point x="635" y="-50"/>
      <point x="635" y="-168" type="qcurve" smooth="yes"/>
      <point x="635" y="-327"/>
      <point x="440" y="-495"/>
      <point x="300" y="-495" type="qcurve" smooth="yes"/>
      <point x="254" y="-495"/>
      <point x="36" y="-485"/>
      <point x="12" y="-482" type="qcurve"/>
      <point x="12" y="-370" type="line"/>
      <point x="46" y="-372"/>
      <point x="79" y="-372"/>
      <point x="110" y="-372" type="qcurve" smooth="yes"/>
      <point x="175" y="-372"/>
      <point x="237" y="-281"/>
      <point x="237" y="-186" type="qcurve" smooth="yes"/>
      <point x="237" y="-87"/>
      <point x="81" y="244"/>
      <point x="81" y="345" type="qcurve" smooth="yes"/>
      <point x="81" y="422"/>
      <point x="190" y="538"/>
      <point x="308" y="558" type="qcurve"/>
      <point x="191" y="582"/>
      <point x="81" y="697"/>
      <point x="81" y="792" type="qcurve" smooth="yes"/>
      <point x="81" y="883"/>
      <point x="227" y="1109"/>
      <point x="227" y="1208" type="qcurve" smooth="yes"/>
      <point x="227" y="1303"/>
      <point x="162" y="1388"/>
      <point x="102" y="1388" type="qcurve" smooth="yes"/>
      <point x="70" y="1388"/>
      <point x="43" y="1388"/>
      <point x="10" y="1386" type="qcurve"/>
      <point x="10" y="1500" type="line"/>
      <point x="34" y="1503"/>
      <point x="269" y="1510"/>
      <point x="315" y="1510" type="qcurve" smooth="yes"/>
      <point x="428" y="1510"/>
      <point x="625" y="1343"/>
      <point x="625" y="1184" type="qcurve" smooth="yes"/>
      <point x="625" y="1066"/>
      <point x="475" y="834"/>
      <point x="475" y="743" type="qcurve" smooth="yes"/>
      <point x="475" y="663"/>
      <point x="551" y="610"/>
      <point x="600" y="598" type="qcurve"/>
      <point x="656" y="589" type="line"/>
    </contour>
  </outline>
</glyph>
